# xmcd
#
# Track frame offsets: 
#        150
#        15230
#        30454
#        49262
#        66358
#        84964
#        109017
#        127325
#        151025
#        165331
#        183624
#        204709
#        223618
#
# Disc length: 3217 seconds
#
# Revision: 0
# Processed by: cddbd v1.5.2PL0 Copyright (c) Steve Scherf et al.
# Submitted via: ExactAudioCopy v1.0b3
#
DISCID=a90c8f0d
DTITLE=Sweet Papa Dave - Hootin' and a Hollerin'
DYEAR=2007
DGENRE=Blues
TTITLE0=Rum Runner
TTITLE1=Relax your mind
TTITLE2=Might fall in love
TTITLE3=Hootin' and a Hollerin'
TTITLE4=Only thing missing
TTITLE5=Trailer trash
TTITLE6=Lucky man blues
TTITLE7=I am your wind
TTITLE8=Evil woman blues
TTITLE9=Hard to get ahead
TTITLE10=The brownie song
TTITLE11=Voodoo Lounge
TTITLE12=Still in love
EXTD=
EXTT0=
EXTT1=
EXTT2=
EXTT3=
EXTT4=
EXTT5=
EXTT6=
EXTT7=
EXTT8=
EXTT9=
EXTT10=
EXTT11=
EXTT12=
PLAYORDER=
